<svg id="Layer_1" data-name="Layer 1" xmlns="http://www.w3.org/2000/svg" viewBox="0 0 200 200"><defs><style>.cls-1{fill:#fff;}.cls-1,.cls-2{stroke:#000;stroke-miterlimit:10;stroke-width:5px;}.cls-2{fill:none;}</style></defs><title>skull</title><path class="cls-1" d="M100,167.55h15.08a14.67,14.67,0,0,0,12.54-7.4c4.28-7.18,11.4-17.23,18.51-18.87,11.25-2.6,29.63-15.05,19.63-62.67S100,32.45,100,32.45,44.25,31,34.25,78.61s8.38,60.07,19.63,62.67C61,142.92,68.1,153,72.38,160.15a14.67,14.67,0,0,0,12.54,7.4Z"/><path class="cls-1" d="M43.16,92.29C43.52,77.52,59.26,69.05,71,68.74c.75,0,16.39-.21,22.42,11.13,3.45,6.5,1.84,13.17,1.29,15.42-2.37,9.75-11.43,21.5-25,21.79S42.84,106,43.16,92.29Z"/><path class="cls-1" d="M156.84,92.29c-.35-14.77-16.1-23.23-27.79-23.55-.75,0-16.39-.21-22.42,11.13-3.45,6.5-1.84,13.17-1.29,15.42,2.37,9.75,11.43,21.5,25,21.79S157.16,106,156.84,92.29Z"/><path class="cls-2" d="M100,118c5.28,0,9.14,5.94,9.57,13.24.88,15.24-4.28,13.24-9.57,13.24s-10.45,2-9.57-13.24C90.86,123.91,94.72,118,100,118Z"/></svg>