<svg id="Layer_1" data-name="Layer 1" xmlns="http://www.w3.org/2000/svg" viewBox="0 0 181.84 140.17"><defs><style>.cls-1,.cls-2{fill:none;stroke:#000;stroke-linecap:round;stroke-width:5px;}.cls-1{stroke-miterlimit:10;}.cls-2{stroke-linejoin:round;}</style></defs><title>human</title><ellipse cx="55" cy="52.99" rx="6.35" ry="5.8"/><ellipse cx="126.84" cy="52.99" rx="6.35" ry="5.8"/><line class="cls-1" x1="90.92" y1="62.37" x2="90.92" y2="82.96"/><path class="cls-2" d="M55,90.57a78.47,78.47,0,0,0,71.83,0c-6.23,13-20.37,21.46-35.92,21.46S61.23,103.59,55,90.57Z"/><path class="cls-2" d="M158.54,103.06A83.35,83.35,0,0,1,23.3,103"/><path class="cls-2" d="M23.3,58.17s-8.47-8.12-18.63,0S23.3,103,23.3,103a83.35,83.35,0,0,0,135.24,0s28.79-36.75,18.63-44.87-18.63,0-18.63,0"/><path class="cls-2" d="M71.3,2.5h39.24a48,48,0,0,1,48,48v75.1a12,12,0,0,1-12,12H35.3a12,12,0,0,1-12-12V50.5A48,48,0,0,1,71.3,2.5Z"/></svg>