<svg id="Layer_1" data-name="Layer 1" xmlns="http://www.w3.org/2000/svg" viewBox="0 0 181.85 140.17"><defs><style>.cls-1{fill:none;stroke:#000;stroke-miterlimit:10;stroke-width:5px;}</style></defs><title>robot</title><path class="cls-1" d="M168.28,53.27c-3.18-.61-6.92-1.22-11.17-1.79V47.17a26,26,0,0,0-26-26H120.78V11.4A5.68,5.68,0,0,0,117,6.08c-5-1.85-14-3.58-26.1-3.58S69.8,4.33,64.8,6.23a5.69,5.69,0,0,0-3.69,5.31v9.62H50.78a26,26,0,0,0-26,26v4.36c-4.32.59-8.1,1.22-11.31,1.85-6.57,1.29-10.95,4.52-11,8.17l0,18.82c0,4.82,7.51,8.73,16.77,8.74h5.5v17.31a6.42,6.42,0,0,0,6.42,6.42h9.17a6.42,6.42,0,0,0,6.42-6.42h0A6.42,6.42,0,0,1,53.19,100h75.5a6.42,6.42,0,0,1,6.42,6.42h0a6.42,6.42,0,0,0,6.42,6.42h9.17a6.42,6.42,0,0,0,6.42-6.42V89.22h5.43c9.27,0,16.78-3.89,16.79-8.71l0-19C179.35,57.81,174.92,54.55,168.28,53.27Z"/><circle class="cls-1" cx="119.23" cy="56.83" r="23"/><circle class="cls-1" cx="62.66" cy="56.83" r="23"/><path class="cls-1" d="M28,122H155.86c0,8.62-5.14,15.67-11.42,15.67h-105C33.17,137.67,28,130.62,28,122Z"/></svg>